{
  "accessors": [
    {
      "bufferView": 2,
      "componentType": 5126,
      "count": 116,
      "max": [
        8.283180236816406,
        2.786893129348755,
        75.96327209472656
      ],
      "min": [
        -2.6094069480895996,
        -2.786895751953125,
        14.856842041015625
      ],
      "type": "VEC3"
    },
    {
      "bufferView": 2,
      "byteOffset": 1392,
      "componentType": 5126,
      "count": 116,
      "max": [
        0.9998850226402283,
        0.9999997019767761,
        0.9863382577896118
      ],
      "min": [
        -0.9998781085014343,
        -0.9999997019767761,
        -0.6816129684448242
      ],
      "type": "VEC3"
    },
    {
      "bufferView": 3,
      "componentType": 5126,
      "count": 116,
      "max": [
        0.9997116327285767,
        1.0,
        0.3369917571544647,
        1.0
      ],
      "min": [
        -0.999331533908844,
        -0.9999911189079285,
        -0.2603430449962616,
        1.0
      ],
      "type": "VEC4"
    },
    {
      "bufferView": 1,
      "componentType": 5126,
      "count": 116,
      "max": [
        0.22021281719207764,
        0.9962195754051208
      ],
      "min": [
        0.11324834823608398,
        0.5872089862823486
      ],
      "type": "VEC2"
    },
    {
      "bufferView": 0,
      "componentType": 5125,
      "count": 534,
      "type": "SCALAR"
    },
    {
      "bufferView": 2,
      "byteOffset": 2784,
      "componentType": 5126,
      "count": 73,
      "max": [
        12.560083389282227,
        1.3280457258224487,
        13.308380126953125
      ],
      "min": [
        -4.329998016357422,
        -1.3280467987060547,
        -180.823486328125
      ],
      "type": "VEC3"
    },
    {
      "bufferView": 2,
      "byteOffset": 3660,
      "componentType": 5126,
      "count": 73,
      "max": [
        0.7320664525032043,
        0.9977536201477051,
        0.05189670994877815
      ],
      "min": [
        -0.9999529719352722,
        -0.9977536797523499,
        -0.997907817363739
      ],
      "type": "VEC3"
    },
    {
      "bufferView": 3,
      "byteOffset": 1856,
      "componentType": 5126,
      "count": 73,
      "max": [
        0.9958370327949524,
        0.999999463558197,
        0.8426491022109985,
        1.0
      ],
      "min": [
        -0.9957919120788574,
        -0.999701976776123,
        -0.9987345933914185,
        1.0
      ],
      "type": "VEC4"
    },
    {
      "bufferView": 1,
      "byteOffset": 928,
      "componentType": 5126,
      "count": 73,
      "max": [
        0.18234749138355255,
        0.999500036239624
      ],
      "min": [
        0.0005000000237487257,
        0.0005000187084078789
      ],
      "type": "VEC2"
    },
    {
      "bufferView": 0,
      "byteOffset": 2136,
      "componentType": 5125,
      "count": 309,
      "type": "SCALAR"
    },
    {
      "bufferView": 2,
      "byteOffset": 4536,
      "componentType": 5126,
      "count": 140,
      "max": [
        11.871149063110352,
        7.444945335388184,
        14.908370971679688
      ],
      "min": [
        -9.67489242553711,
        -7.444945335388184,
        13.256843566894531
      ],
      "type": "VEC3"
    },
    {
      "bufferView": 2,
      "byteOffset": 6216,
      "componentType": 5126,
      "count": 140,
      "max": [
        0.8211596012115479,
        0.7863062024116516,
        1.0
      ],
      "min": [
        -0.8216632604598999,
        -0.7865400314331055,
        -1.0
      ],
      "type": "VEC3"
    },
    {
      "bufferView": 3,
      "byteOffset": 3024,
      "componentType": 5126,
      "count": 140,
      "max": [
        0.9999984502792358,
        0.8619714379310608,
        0.8216501474380493,
        1.0
      ],
      "min": [
        -0.9999999403953552,
        -0.8709555268287659,
        -0.8208987712860107,
        1.0
      ],
      "type": "VEC4"
    },
    {
      "bufferView": 1,
      "byteOffset": 1512,
      "componentType": 5126,
      "count": 140,
      "max": [
        0.3412349224090576,
        0.9952684044837952
      ],
      "min": [
        0.2197328805923462,
        0.8262579441070557
      ],
      "type": "VEC2"
    },
    {
      "bufferView": 0,
      "byteOffset": 3372,
      "componentType": 5125,
      "count": 504,
      "type": "SCALAR"
    }
  ],
  "asset": {
    "extras": {
      "author": "Sonia Martin (https://sketchfab.com/sonkiam)",
      "license": "CC-BY-4.0 (http://creativecommons.org/licenses/by/4.0/)",
      "source": "https://sketchfab.com/3d-models/katana-purple-01b5972e12764ddc892da1c3e9bc943a",
      "title": "Katana Purple"
    },
    "generator": "Sketchfab-12.66.0",
    "version": "2.0"
  },
  "bufferViews": [
    {
      "buffer": 0,
      "byteLength": 5388,
      "name": "floatBufferViews",
      "target": 34963
    },
    {
      "buffer": 0,
      "byteLength": 2632,
      "byteOffset": 5388,
      "byteStride": 8,
      "name": "floatBufferViews",
      "target": 34962
    },
    {
      "buffer": 0,
      "byteLength": 7896,
      "byteOffset": 8020,
      "byteStride": 12,
      "name": "floatBufferViews",
      "target": 34962
    },
    {
      "buffer": 0,
      "byteLength": 5264,
      "byteOffset": 15916,
      "byteStride": 16,
      "name": "floatBufferViews",
      "target": 34962
    }
  ],
  "buffers": [
    {
      "byteLength": 21180,
      "uri": "scene.bin"
    }
  ],
  "images": [
    {
      "uri": "textures/Scene_-_Root_baseColor.png"
    },
    {
      "uri": "textures/Scene_-_Root_metallicRoughness.png"
    },
    {
      "uri": "textures/Scene_-_Root_normal.png"
    }
  ],
  "materials": [
    {
      "doubleSided": true,
      "name": "Scene_-_Root",
      "normalTexture": {
        "index": 2
      },
      "pbrMetallicRoughness": {
        "baseColorTexture": {
          "index": 0
        },
        "metallicRoughnessTexture": {
          "index": 1
        }
      }
    }
  ],
  "meshes": [
    {
      "name": "Handle_LP__0",
      "primitives": [
        {
          "attributes": {
            "NORMAL": 1,
            "POSITION": 0,
            "TANGENT": 2,
            "TEXCOORD_0": 3
          },
          "indices": 4,
          "material": 0,
          "mode": 4
        }
      ]
    },
    {
      "name": "Blade_LP__0",
      "primitives": [
        {
          "attributes": {
            "NORMAL": 6,
            "POSITION": 5,
            "TANGENT": 7,
            "TEXCOORD_0": 8
          },
          "indices": 9,
          "material": 0,
          "mode": 4
        }
      ]
    },
    {
      "name": "Guarde_LP__0",
      "primitives": [
        {
          "attributes": {
            "NORMAL": 11,
            "POSITION": 10,
            "TANGENT": 12,
            "TEXCOORD_0": 13
          },
          "indices": 14,
          "material": 0,
          "mode": 4
        }
      ]
    }
  ],
  "nodes": [
    {
      "children": [
        1
      ],
      "matrix": [
        0.598795473575592,
        0.646717667579651,
        -0.4724407494068144,
        0.0,
        0.13405780494213104,
        -0.6624968051910399,
        -0.736971139907837,
        0.0,
        -0.7896027565002441,
        0.37796062231063854,
        -0.4833976328372954,
        0.0,
        1.0173221826553345,
        0.8015666007995604,
        0.6227771043777468,
        1.0
      ],
      "name": "Sketchfab_model"
    },
    {
      "children": [
        2
      ],
      "matrix": [
        0.009999999776482582,
        0.0,
        0.0,
        0.0,
        0.0,
        0.0,
        0.009999999776482582,
        0.0,
        0.0,
        -0.009999999776482582,
        0.0,
        0.0,
        0.0,
        0.0,
        0.0,
        1.0
      ],
      "name": "eda9e3a7ca11438a93b76d2af32c4467.fbx"
    },
    {
      "children": [
        3,
        6,
        9
      ],
      "name": "RootNode"
    },
    {
      "children": [
        4
      ],
      "matrix": [
        1.0,
        0.0,
        0.0,
        0.0,
        0.0,
        2.220446049250313e-16,
        -1.0,
        0.0,
        0.0,
        1.0,
        2.220446049250313e-16,
        0.0,
        0.0,
        0.0,
        8.16230931377504e-06,
        1.0
      ],
      "name": "Handle_LP"
    },
    {
      "children": [
        5
      ],
      "matrix": [
        1.0,
        0.0,
        -0.0,
        0.0,
        0.0,
        1.0,
        0.0,
        0.0,
        0.0,
        0.0,
        1.0,
        0.0,
        -1.4577817916870117,
        -5.295106348057743e-06,
        181.27749633789063,
        1.0
      ],
      "name": "Object_4"
    },
    {
      "mesh": 0,
      "name": "Handle_LP__0"
    },
    {
      "children": [
        7
      ],
      "matrix": [
        1.0,
        0.0,
        0.0,
        0.0,
        0.0,
        2.220446049250313e-16,
        -1.0,
        0.0,
        0.0,
        1.0,
        2.220446049250313e-16,
        0.0,
        0.0,
        0.0,
        8.16230931377504e-06,
        1.0
      ],
      "name": "Blade_LP"
    },
    {
      "children": [
        8
      ],
      "matrix": [
        1.0,
        0.0,
        -0.0,
        0.0,
        0.0,
        1.0,
        0.0,
        0.0,
        0.0,
        0.0,
        1.0,
        0.0,
        -1.4577817916870117,
        -5.295106348057743e-06,
        181.27749633789063,
        1.0
      ],
      "name": "Object_7"
    },
    {
      "mesh": 1,
      "name": "Blade_LP__0"
    },
    {
      "children": [
        10
      ],
      "matrix": [
        1.0,
        0.0,
        0.0,
        0.0,
        0.0,
        2.220446049250313e-16,
        -1.0,
        0.0,
        0.0,
        1.0,
        2.220446049250313e-16,
        0.0,
        0.0,
        0.0,
        8.16230931377504e-06,
        1.0
      ],
      "name": "Guarde_LP"
    },
    {
      "children": [
        11
      ],
      "matrix": [
        1.0,
        0.0,
        -0.0,
        0.0,
        0.0,
        1.0,
        0.0,
        0.0,
        0.0,
        0.0,
        1.0,
        0.0,
        -1.4577817916870117,
        -5.295106348057743e-06,
        181.27749633789063,
        1.0
      ],
      "name": "Object_10"
    },
    {
      "mesh": 2,
      "name": "Guarde_LP__0"
    }
  ],
  "samplers": [
    {
      "magFilter": 9729,
      "minFilter": 9987,
      "wrapS": 10497,
      "wrapT": 10497
    }
  ],
  "scene": 0,
  "scenes": [
    {
      "name": "Sketchfab_Scene",
      "nodes": [
        0
      ]
    }
  ],
  "textures": [
    {
      "sampler": 0,
      "source": 0
    },
    {
      "sampler": 0,
      "source": 1
    },
    {
      "sampler": 0,
      "source": 2
    }
  ]
}
