{
  "accessors": [
    {
      "bufferView": 2,
      "componentType": 5126,
      "count": 1286,
      "max": [
        0.05642776936292648,
        0.06478261947631836,
        1.3309190273284912
      ],
      "min": [
        -0.09280390292406082,
        -0.2584345042705536,
        1.1671860218048096
      ],
      "type": "VEC3"
    },
    {
      "bufferView": 2,
      "byteOffset": 15432,
      "componentType": 5126,
      "count": 1286,
      "max": [
        1.0,
        0.9998852014541626,
        1.0
      ],
      "min": [
        -1.0,
        -0.9998085498809814,
        -1.0
      ],
      "type": "VEC3"
    },
    {
      "bufferView": 1,
      "componentType": 5126,
      "count": 1286,
      "max": [
        0.9955099821090698,
        0.9961900115013123
      ],
      "min": [
        0.0017979999538511038,
        0.0017889740411192179
      ],
      "type": "VEC2"
    },
    {
      "bufferView": 0,
      "componentType": 5125,
      "count": 2952,
      "type": "SCALAR"
    },
    {
      "bufferView": 2,
      "byteOffset": 30864,
      "componentType": 5126,
      "count": 16063,
      "max": [
        0.3175741136074066,
        0.12516279518604279,
        1.2391070127487183
      ],
      "min": [
        -0.3190337121486664,
        -0.1904979944229126,
        -0.018630169332027435
      ],
      "type": "VEC3"
    },
    {
      "bufferView": 2,
      "byteOffset": 223620,
      "componentType": 5126,
      "count": 16063,
      "max": [
        0.999992311000824,
        0.9999426603317261,
        0.9999944567680359
      ],
      "min": [
        -0.9999875426292419,
        -0.999995768070221,
        -0.9999803304672241
      ],
      "type": "VEC3"
    },
    {
      "bufferView": 3,
      "componentType": 5126,
      "count": 16063,
      "max": [
        0.9999985694885254,
        0.9999617338180542,
        0.9999949336051941,
        1.0
      ],
      "min": [
        -0.9999696016311646,
        -0.9999375939369202,
        -0.9999957084655762,
        -1.0
      ],
      "type": "VEC4"
    },
    {
      "bufferView": 1,
      "byteOffset": 10288,
      "componentType": 5126,
      "count": 16063,
      "max": [
        0.9970700144767761,
        0.99480801820755
      ],
      "min": [
        0.0026990000624209642,
        0.0029299859888851643
      ],
      "type": "VEC2"
    },
    {
      "bufferView": 0,
      "byteOffset": 11808,
      "componentType": 5125,
      "count": 45609,
      "type": "SCALAR"
    },
    {
      "bufferView": 2,
      "byteOffset": 416376,
      "componentType": 5126,
      "count": 385,
      "max": [
        1.0258069949031778e-07,
        -0.06578934192657471,
        1.2436619997024536
      ],
      "min": [
        5.3729589666318134e-08,
        -0.06578946113586426,
        1.2436610460281372
      ],
      "type": "VEC3"
    },
    {
      "bufferView": 2,
      "byteOffset": 420996,
      "componentType": 5126,
      "count": 385,
      "max": [
        0.9999141693115234,
        1.0,
        1.0
      ],
      "min": [
        -0.9999141693115234,
        -1.0,
        -1.0
      ],
      "type": "VEC3"
    },
    {
      "bufferView": 1,
      "byteOffset": 138792,
      "componentType": 5126,
      "count": 385,
      "max": [
        0.9155269861221313,
        0.9702759981155396
      ],
      "min": [
        0.10302700102329254,
        0.03466796875
      ],
      "type": "VEC2"
    },
    {
      "bufferView": 0,
      "byteOffset": 194244,
      "componentType": 5125,
      "count": 801,
      "type": "SCALAR"
    }
  ],
  "asset": {
    "extras": {
      "author": "ThreadedMetal (https://sketchfab.com/ThreadedMetal)",
      "license": "CC-BY-4.0 (http://creativecommons.org/licenses/by/4.0/)",
      "source": "https://sketchfab.com/3d-models/purple-cameraman-c1b8cd055aab462aba8d5adb5a753741",
      "title": "Purple Cameraman"
    },
    "generator": "Sketchfab-16.61.0",
    "version": "2.0"
  },
  "bufferViews": [
    {
      "buffer": 0,
      "byteLength": 197448,
      "name": "floatBufferViews",
      "target": 34963
    },
    {
      "buffer": 0,
      "byteLength": 141872,
      "byteOffset": 197448,
      "byteStride": 8,
      "name": "floatBufferViews",
      "target": 34962
    },
    {
      "buffer": 0,
      "byteLength": 425616,
      "byteOffset": 339320,
      "byteStride": 12,
      "name": "floatBufferViews",
      "target": 34962
    },
    {
      "buffer": 0,
      "byteLength": 257008,
      "byteOffset": 764936,
      "byteStride": 16,
      "name": "floatBufferViews",
      "target": 34962
    }
  ],
  "buffers": [
    {
      "byteLength": 1021944,
      "uri": "scene.bin"
    }
  ],
  "extensionsUsed": [
    "KHR_materials_emissive_strength",
    "KHR_materials_clearcoat"
  ],
  "images": [
    {
      "uri": "textures/Material_baseColor.png"
    },
    {
      "uri": "textures/Material_metallicRoughness.png"
    },
    {
      "uri": "textures/Material_emissive.png"
    },
    {
      "uri": "textures/Material_1_baseColor.png"
    },
    {
      "uri": "textures/Material_1_metallicRoughness.png"
    },
    {
      "uri": "textures/Material_1_normal.png"
    }
  ],
  "materials": [
    {
      "doubleSided": true,
      "emissiveFactor": [
        1.0,
        1.0,
        1.0
      ],
      "emissiveTexture": {
        "index": 2
      },
      "extensions": {
        "KHR_materials_clearcoat": {
          "clearcoatFactor": 0.3032000783777357,
          "clearcoatRoughnessFactor": 0.0
        },
        "KHR_materials_emissive_strength": {
          "emissiveStrength": 5.0
        }
      },
      "name": "Material",
      "occlusionTexture": {
        "index": 1
      },
      "pbrMetallicRoughness": {
        "baseColorTexture": {
          "index": 0
        },
        "metallicFactor": 0.5219054639978566,
        "metallicRoughnessTexture": {
          "index": 1
        },
        "roughnessFactor": 0.9442847788619451
      }
    },
    {
      "doubleSided": true,
      "extensions": {
        "KHR_materials_clearcoat": {
          "clearcoatFactor": 1.0,
          "clearcoatNormalTexture": {
            "index": 5,
            "scale": 0.6330963304781023
          },
          "clearcoatRoughnessFactor": 0.2092655652170797
        }
      },
      "name": "Material_1",
      "normalTexture": {
        "index": 5,
        "scale": 0.6330963304781023
      },
      "occlusionTexture": {
        "index": 4
      },
      "pbrMetallicRoughness": {
        "baseColorTexture": {
          "index": 3
        },
        "metallicRoughnessTexture": {
          "index": 4
        }
      }
    },
    {
      "doubleSided": true,
      "name": "Material_2",
      "pbrMetallicRoughness": {
        "metallicFactor": 0.0,
        "roughnessFactor": 0.6
      }
    }
  ],
  "meshes": [
    {
      "name": "Object_0",
      "primitives": [
        {
          "attributes": {
            "NORMAL": 1,
            "POSITION": 0,
            "TEXCOORD_0": 2
          },
          "indices": 3,
          "material": 0,
          "mode": 4
        }
      ]
    },
    {
      "name": "Object_1",
      "primitives": [
        {
          "attributes": {
            "NORMAL": 5,
            "POSITION": 4,
            "TANGENT": 6,
            "TEXCOORD_0": 7
          },
          "indices": 8,
          "material": 1,
          "mode": 4
        }
      ]
    },
    {
      "name": "Object_2",
      "primitives": [
        {
          "attributes": {
            "NORMAL": 10,
            "POSITION": 9,
            "TEXCOORD_0": 11
          },
          "indices": 12,
          "material": 2,
          "mode": 4
        }
      ]
    }
  ],
  "nodes": [
    {
      "children": [
        1
      ],
      "matrix": [
        1.0,
        0.0,
        0.0,
        0.0,
        0.0,
        2.220446049250313e-16,
        -1.0,
        0.0,
        0.0,
        1.0,
        2.220446049250313e-16,
        0.0,
        0.0,
        0.0,
        0.0,
        1.0
      ],
      "name": "Sketchfab_model"
    },
    {
      "children": [
        2,
        3,
        4
      ],
      "name": "purple cameraman.obj.cleaner.materialmerger.gles"
    },
    {
      "mesh": 0,
      "name": "Object_2"
    },
    {
      "mesh": 1,
      "name": "Object_3"
    },
    {
      "mesh": 2,
      "name": "Object_4"
    }
  ],
  "samplers": [
    {
      "magFilter": 9729,
      "minFilter": 9987,
      "wrapS": 10497,
      "wrapT": 10497
    }
  ],
  "scene": 0,
  "scenes": [
    {
      "name": "Sketchfab_Scene",
      "nodes": [
        0
      ]
    }
  ],
  "textures": [
    {
      "sampler": 0,
      "source": 0
    },
    {
      "sampler": 0,
      "source": 1
    },
    {
      "sampler": 0,
      "source": 2
    },
    {
      "sampler": 0,
      "source": 3
    },
    {
      "sampler": 0,
      "source": 4
    },
    {
      "sampler": 0,
      "source": 5
    }
  ]
}
