{
  "accessors": [
    {
      "bufferView": 2,
      "componentType": 5126,
      "count": 3032,
      "max": [
        3.666959047317505,
        3.6686389446258545,
        11.663017272949219
      ],
      "min": [
        0.0,
        0.0,
        0.0
      ],
      "type": "VEC3"
    },
    {
      "bufferView": 2,
      "byteOffset": 36384,
      "componentType": 5126,
      "count": 3032,
      "max": [
        0.9998316168785095,
        0.9982571005821228,
        0.9917397499084473
      ],
      "min": [
        -0.9994897842407227,
        -0.999915361404419,
        -0.9988122582435608
      ],
      "type": "VEC3"
    },
    {
      "bufferView": 3,
      "componentType": 5126,
      "count": 3032,
      "max": [
        0.9988778233528137,
        0.9996066689491272,
        0.9989422559738159,
        1.0
      ],
      "min": [
        -0.999457836151123,
        -0.9996604919433594,
        -0.9997384548187256,
        -1.0
      ],
      "type": "VEC4"
    },
    {
      "bufferView": 1,
      "componentType": 5126,
      "count": 3032,
      "max": [
        0.9863160252571106,
        0.8443830013275146
      ],
      "min": [
        0.004505000077188015,
        0.002877000020816922
      ],
      "type": "VEC2"
    },
    {
      "bufferView": 0,
      "componentType": 5125,
      "count": 14025,
      "type": "SCALAR"
    },
    {
      "bufferView": 2,
      "byteOffset": 72768,
      "componentType": 5126,
      "count": 1301,
      "max": [
        3.5932199954986572,
        3.589103937149048,
        11.044072151184082
      ],
      "min": [
        0.10679197311401367,
        0.08309495449066162,
        0.0
      ],
      "type": "VEC3"
    },
    {
      "bufferView": 2,
      "byteOffset": 88380,
      "componentType": 5126,
      "count": 1301,
      "max": [
        0.9994716644287109,
        0.9999772310256958,
        0.8633779883384705
      ],
      "min": [
        -0.9953677654266357,
        -0.9999571442604065,
        -0.9683974981307983
      ],
      "type": "VEC3"
    },
    {
      "bufferView": 3,
      "byteOffset": 48512,
      "componentType": 5126,
      "count": 1301,
      "max": [
        0.9983993172645569,
        0.9953402280807495,
        0.9924691319465637,
        1.0
      ],
      "min": [
        -0.9981805086135864,
        -0.9950888752937317,
        -0.9997147917747498,
        -1.0
      ],
      "type": "VEC4"
    },
    {
      "bufferView": 1,
      "byteOffset": 24256,
      "componentType": 5126,
      "count": 1301,
      "max": [
        0.9893310070037842,
        0.961758017539978
      ],
      "min": [
        0.004505000077188015,
        0.004505000077188015
      ],
      "type": "VEC2"
    },
    {
      "bufferView": 0,
      "byteOffset": 56100,
      "componentType": 5125,
      "count": 5430,
      "type": "SCALAR"
    }
  ],
  "asset": {
    "extras": {
      "author": "paul heynen (https://sketchfab.com/paulheynen)",
      "license": "CC-BY-4.0 (http://creativecommons.org/licenses/by/4.0/)",
      "source": "https://sketchfab.com/3d-models/jellyfish-42da7b26f173427f89c9ddb64be1be73",
      "title": "Jellyfish"
    },
    "generator": "Sketchfab-12.67.0",
    "version": "2.0"
  },
  "bufferViews": [
    {
      "buffer": 0,
      "byteLength": 77820,
      "name": "floatBufferViews",
      "target": 34963
    },
    {
      "buffer": 0,
      "byteLength": 34664,
      "byteOffset": 77820,
      "byteStride": 8,
      "name": "floatBufferViews",
      "target": 34962
    },
    {
      "buffer": 0,
      "byteLength": 103992,
      "byteOffset": 112484,
      "byteStride": 12,
      "name": "floatBufferViews",
      "target": 34962
    },
    {
      "buffer": 0,
      "byteLength": 69328,
      "byteOffset": 216476,
      "byteStride": 16,
      "name": "floatBufferViews",
      "target": 34962
    }
  ],
  "buffers": [
    {
      "byteLength": 285804,
      "uri": "scene.bin"
    }
  ],
  "images": [
    {
      "uri": "textures/initialShadingGroup_baseColor.png"
    },
    {
      "uri": "textures/initialShadingGroup_metallicRoughness.png"
    },
    {
      "uri": "textures/initialShadingGroup_emissive.png"
    },
    {
      "uri": "textures/initialShadingGroup_normal.png"
    }
  ],
  "materials": [
    {
      "doubleSided": true,
      "emissiveFactor": [
        1.0,
        1.0,
        1.0
      ],
      "emissiveTexture": {
        "index": 2
      },
      "name": "initialShadingGroup",
      "normalTexture": {
        "index": 3
      },
      "pbrMetallicRoughness": {
        "baseColorTexture": {
          "index": 0
        },
        "metallicRoughnessTexture": {
          "index": 1
        },
        "roughnessFactor": 0.22732469512195125
      }
    }
  ],
  "meshes": [
    {
      "name": "Object_0",
      "primitives": [
        {
          "attributes": {
            "NORMAL": 1,
            "POSITION": 0,
            "TANGENT": 2,
            "TEXCOORD_0": 3
          },
          "indices": 4,
          "material": 0,
          "mode": 4
        }
      ]
    },
    {
      "name": "Object_1",
      "primitives": [
        {
          "attributes": {
            "NORMAL": 6,
            "POSITION": 5,
            "TANGENT": 7,
            "TEXCOORD_0": 8
          },
          "indices": 9,
          "material": 0,
          "mode": 4
        }
      ]
    }
  ],
  "nodes": [
    {
      "children": [
        1
      ],
      "matrix": [
        1.0,
        0.0,
        0.0,
        0.0,
        0.0,
        2.220446049250313e-16,
        -1.0,
        0.0,
        0.0,
        1.0,
        2.220446049250313e-16,
        0.0,
        0.0,
        0.0,
        0.0,
        1.0
      ],
      "name": "Sketchfab_model"
    },
    {
      "children": [
        2
      ],
      "matrix": [
        1.0,
        0.0,
        0.0,
        0.0,
        0.0,
        1.0,
        0.0,
        0.0,
        0.0,
        0.0,
        1.0,
        0.0,
        -1.8367400169372559,
        -1.8363089561462402,
        -10.654244422912598,
        1.0
      ],
      "name": "5dc7c4ed485a43fc85ca8fbd2f03f1f9.obj.cleaner.gles"
    },
    {
      "children": [
        3,
        4
      ],
      "name": "Object_2"
    },
    {
      "mesh": 0,
      "name": "Object_3"
    },
    {
      "mesh": 1,
      "name": "Object_4"
    }
  ],
  "samplers": [
    {
      "magFilter": 9729,
      "minFilter": 9987,
      "wrapS": 10497,
      "wrapT": 10497
    }
  ],
  "scene": 0,
  "scenes": [
    {
      "name": "Sketchfab_Scene",
      "nodes": [
        0
      ]
    }
  ],
  "textures": [
    {
      "sampler": 0,
      "source": 0
    },
    {
      "sampler": 0,
      "source": 1
    },
    {
      "sampler": 0,
      "source": 2
    },
    {
      "sampler": 0,
      "source": 3
    }
  ]
}
